<svg width="24" height="24" viewBox="0 0 24 24" fill="none" xmlns="http://www.w3.org/2000/svg">
<path d="M11.5796 10.7604C11.2465 11.0364 10.7525 10.994 10.4713 10.6635C10.471 10.6631 10.471 10.6631 10.4707 10.6628C10.1874 10.3292 10.2284 9.8291 10.562 9.54581L11.0849 9.10146C10.7516 9.38442 10.2518 9.34383 9.9685 9.01088C9.96822 9.01051 9.96822 9.01051 9.96789 9.01018C9.6846 8.67657 9.72556 8.17647 10.0592 7.89318L14.2593 4.32705C14.6489 3.99682 15.0792 3.72097 15.5378 3.50654C15.9963 3.29211 16.4836 3.13806 16.9867 3.05109L18.903 1.40997L22.7428 5.92239L20.874 7.51024L20.5464 8.71575C20.3519 9.43263 19.9447 10.0736 19.3783 10.5543L17.2607 12.3525C16.8989 12.6598 16.3569 12.6158 16.0496 12.2546C16.049 12.2539 16.0487 12.2536 16.0484 12.2532C15.7411 11.8914 15.7847 11.3497 16.1459 11.0424L13.4353 13.3435C13.102 13.6265 12.6025 13.5863 12.3195 13.2536C12.3189 13.2529 12.3186 13.2526 12.3183 13.2522C12.0353 12.9189 12.0755 12.4195 12.4085 12.1361L11.872 12.5913C11.5387 12.8743 11.0389 12.8344 10.7556 12.5014C10.7553 12.501 10.7553 12.501 10.755 12.5007C10.4717 12.1671 10.5123 11.6666 10.846 11.3833L11.5796 10.7604Z" fill="#FFF3E0"/>
<path d="M19.6553 2.29405L18.903 1.40997L16.9867 3.05109C16.4836 3.13811 15.9963 3.29211 15.5378 3.50654C15.0792 3.72097 14.6489 3.99681 14.2593 4.32705L10.0592 7.89318C9.72556 8.17647 9.6846 8.67657 9.96789 9.01018C9.96817 9.01055 9.96817 9.01055 9.9685 9.01088C10.1188 9.18744 10.33 9.28092 10.5449 9.28836C10.5662 9.09415 10.6583 8.90729 10.819 8.77084L15.0191 5.20472C15.4087 4.87448 15.839 4.59864 16.2976 4.3842C16.6845 4.20329 17.0918 4.06534 17.5118 3.97444C17.6684 3.94055 17.8148 3.87024 17.9365 3.76605L17.9564 3.74896C18.2436 3.50298 18.6745 3.53018 18.9285 3.81033L21.4448 6.58572C21.5222 6.671 21.6113 6.74313 21.7084 6.80122L22.7429 5.92234L19.6553 2.29405Z" fill="#FFE6C6"/>
<path d="M11.6052 12.2611L12.3387 11.6381C12.0057 11.9141 11.5116 11.8717 11.2305 11.5412C11.2302 11.5408 11.2302 11.5408 11.2298 11.5405C11.1436 11.439 11.0879 11.3219 11.0608 11.2004L10.8454 11.3834C10.5118 11.6666 10.4711 12.1671 10.7544 12.5007C10.7547 12.5011 10.7547 12.5011 10.755 12.5014C10.9052 12.6779 11.1163 12.7712 11.3312 12.7785C11.3525 12.5843 11.4445 12.3975 11.6052 12.2611Z" fill="#FFE6C6"/>
<path d="M13.1676 13.0138L12.6312 13.469C12.6291 13.4708 12.6269 13.4722 12.6248 13.4739C12.711 13.5087 12.8023 13.5274 12.8944 13.5306C12.9157 13.3367 13.0073 13.1501 13.1676 13.0138Z" fill="#FFE6C6"/>
<path d="M11.3213 10.4235L11.8442 9.9791C11.5109 10.2621 11.0112 10.2215 10.7278 9.88852C10.7276 9.88815 10.7276 9.88815 10.7272 9.88782C10.6412 9.78657 10.5856 9.66988 10.5585 9.54865C10.2278 9.8324 10.1879 10.3302 10.4703 10.6628C10.4706 10.6632 10.4706 10.6632 10.4709 10.6635C10.6212 10.8401 10.8324 10.9336 11.0473 10.941C11.0686 10.7468 11.1606 10.5599 11.3213 10.4235Z" fill="#FFE6C6"/>
<path d="M11.264 11.9226C11.5704 12.2279 11.5751 12.7237 11.2729 13.0351C11.2726 13.0354 11.2726 13.0354 11.2723 13.0358C10.9671 13.3495 10.4654 13.3563 10.1517 13.0512L9.65959 12.5729C9.97297 12.8777 9.98013 13.3791 9.67564 13.6928C9.67531 13.6931 9.67531 13.6931 9.67499 13.6935C9.36984 14.0072 8.8681 14.014 8.55438 13.7089L4.60489 9.86698C4.23908 9.51063 3.92359 9.10849 3.66651 8.67242C3.40944 8.23635 3.20975 7.76592 3.07527 7.2734L1.25928 5.52191L5.38599 1.27026L7.14441 2.97958L8.37567 3.19097C9.10776 3.31642 9.78457 3.66088 10.317 4.17892L12.3085 6.11582C12.6488 6.44676 12.6565 6.99049 12.3263 7.33074C12.3256 7.3314 12.3253 7.33177 12.325 7.3321C11.994 7.67235 11.4506 7.68045 11.1104 7.35021L13.6588 9.82963C13.9722 10.1344 13.9797 10.6355 13.6755 10.9489C13.6749 10.9496 13.6746 10.95 13.6742 10.9503C13.3694 11.2637 12.8683 11.2712 12.5546 10.9667L13.0588 11.4573C13.3722 11.7621 13.38 12.2635 13.0755 12.5773C13.0752 12.5776 13.0752 12.5776 13.0749 12.5779C12.7697 12.8916 12.2676 12.8988 11.9539 12.5936L11.264 11.9226Z" fill="#F8D3AA"/>
<path d="M9.24787 13.0608L5.29837 9.21891C4.93256 8.86256 4.61707 8.46042 4.36 8.02435C4.15951 7.68424 3.99391 7.3233 3.86696 6.94724C3.79281 6.72766 3.66835 6.52848 3.50157 6.3676L3.48631 6.3529C3.2517 6.12663 3.2451 5.753 3.47157 5.51858L6.42108 2.46553C6.45301 2.43248 6.48231 2.39784 6.5095 2.36217L5.41928 1.30237L5.38623 1.27026L1.25952 5.52191L3.07552 7.2734C3.20995 7.76597 3.40964 8.23635 3.66676 8.67242C3.92383 9.10854 4.23937 9.51063 4.60513 9.86698L8.55463 13.7089C8.86834 14.014 9.37008 14.0072 9.67523 13.6935L9.67589 13.6928C9.79019 13.575 9.86055 13.4308 9.88732 13.2805C9.66035 13.3054 9.42438 13.2325 9.24787 13.0608Z" fill="#FABF8E"/>
<path d="M12.5139 12.0525C12.9845 12.0525 13.366 11.671 13.366 11.2004C13.366 10.7299 12.9845 10.3484 12.5139 10.3484C12.0433 10.3484 11.6619 10.7299 11.6619 11.2004C11.6619 11.671 12.0433 12.0525 12.5139 12.0525Z" fill="#F8D3AA"/>
<path d="M12.7306 11.6238C12.7363 11.1913 13.0887 10.8426 13.5226 10.8426H13.5236C13.9612 10.8431 14.3156 11.1983 14.3151 11.636L14.3146 12.3222C14.3151 11.885 14.6699 11.5307 15.1071 11.5307H15.1081C15.5457 11.5312 15.9001 11.8864 15.8996 12.3241L15.8935 17.834C15.8926 18.3447 15.8238 18.8511 15.6899 19.3393C15.556 19.8276 15.3575 20.2985 15.0978 20.738L15.1057 23.261H9.18066L9.18253 20.8087L8.47665 19.7779C8.05678 19.1652 7.83256 18.4397 7.8335 17.6968L7.83631 14.9187C7.83678 14.4441 8.22154 14.0598 8.69572 14.0598H8.69759C9.17223 14.0602 9.55653 14.4445 9.55653 14.9187L9.56074 11.3631C9.56121 10.9259 9.91555 10.5716 10.3523 10.5716H10.3542C10.7913 10.572 11.1457 10.9264 11.1457 11.3636L11.1466 10.66C11.1471 10.2229 11.5014 9.86804 11.9386 9.86804H11.9396C12.3772 9.86851 12.732 10.2238 12.7316 10.6615L12.7306 11.6238Z" fill="#FFE0D1"/>
<path d="M11.8741 10.66C11.8745 10.3541 12.0482 10.0879 12.3023 9.956C12.1935 9.89959 12.0705 9.86818 11.9394 9.86804C11.939 9.86804 11.939 9.86804 11.9385 9.86804C11.5013 9.86804 11.147 10.2229 11.1465 10.66L11.1414 14.7671C11.5434 14.7671 11.8694 14.4415 11.8699 14.0394L11.8741 10.66Z" fill="#FFD1C2"/>
<path d="M13.4162 11.6341C13.4162 11.6308 13.4162 11.6271 13.4167 11.6238C13.4207 11.314 13.6032 11.0468 13.8657 10.9204C13.7621 10.8705 13.6464 10.8427 13.5237 10.8426C13.5232 10.8426 13.5232 10.8426 13.5228 10.8426C13.0889 10.8426 12.7364 11.1913 12.7308 11.6238C12.7303 11.6271 12.7303 11.6308 12.7303 11.6341L12.7266 14.9206C13.1055 14.9206 13.4128 14.6136 13.4132 14.2347L13.4162 11.6341Z" fill="#FFD1C2"/>
<path d="M15.0232 12.3222C15.0235 12.0125 15.2019 11.744 15.4611 11.614C15.3547 11.5606 15.2351 11.5308 15.1079 11.5306C15.1074 11.5306 15.1074 11.5306 15.1069 11.5306C14.6697 11.5306 14.3149 11.885 14.3145 12.3222L14.3149 15.0399C14.3171 15.0399 14.3192 15.0399 14.3214 15.0398C14.7096 15.0383 15.0236 14.723 15.0236 14.3348L15.0232 12.3222Z" fill="#FFD1C2"/>
<path d="M10.2814 11.3631C10.2817 11.0556 10.4569 10.7887 10.7128 10.6577C10.6049 10.6025 10.4835 10.5717 10.354 10.5715C10.3535 10.5715 10.353 10.5715 10.3521 10.5715C9.91538 10.5715 9.56104 10.9259 9.56057 11.3631L9.55636 14.9187V14.9205L9.55542 16.1324C9.95362 16.1324 10.2765 15.8098 10.2768 15.4116L10.2814 11.3631Z" fill="#FFD1C2"/>
<path d="M15.1012 21.8873C15.0526 21.881 10.7005 21.8726 10.7005 21.8726C10.431 21.8724 10.2127 21.6536 10.2129 21.3841L10.2131 21.1448C10.2133 20.7677 10.0995 20.3994 9.88643 20.0883L9.50761 19.5352C9.08773 18.9225 8.86352 18.1969 8.86445 17.4541L8.86726 14.676C8.86745 14.4727 8.93855 14.2863 9.05651 14.1393C8.94712 14.0888 8.82579 14.0598 8.69735 14.0597C8.69688 14.0597 8.69641 14.0597 8.69547 14.0597C8.2213 14.0597 7.83653 14.444 7.83606 14.9186L7.83325 17.6967C7.83232 18.4396 8.05653 19.1651 8.47641 19.7779L9.18229 20.8086L9.18041 23.2609H9.86097H15.1055L15.1012 21.8873Z" fill="#FFD1C2"/>
<path d="M15.2618 23.6425C15.3424 23.6426 15.4078 23.5774 15.408 23.4969L15.4091 23.0376C15.4094 22.7849 15.2048 22.5798 14.952 22.5795L9.32379 22.5732C9.07107 22.573 8.86595 22.7776 8.86567 23.0303L8.8645 23.4892C8.86432 23.5698 8.92961 23.6354 9.01031 23.6355L15.2618 23.6425Z" fill="#DF78EF"/>
<path d="M5.03929 0.494357L5.90483 1.3306C6.08659 1.50622 6.0916 1.79592 5.91597 1.97768L2.00542 6.02547C1.82979 6.20723 1.54009 6.21224 1.35833 6.03661L0.49279 5.20033C0.414479 5.12464 0.412326 4.9998 0.487969 4.92149L4.7604 0.499132C4.83609 0.420821 4.96098 0.418667 5.03929 0.494357Z" fill="#DF78EF"/>
<path d="M23.4681 5.36849L22.6108 6.14579C22.4236 6.31557 22.1342 6.30139 21.9644 6.11415L18.184 1.94457C18.0143 1.75733 18.0284 1.46791 18.2157 1.29819L19.073 0.52088C19.1726 0.430539 19.3266 0.438075 19.417 0.537731L23.485 5.02454C23.5753 5.12415 23.5678 5.27815 23.4681 5.36849Z" fill="#DF78EF"/>
<path d="M23.909 4.9691C23.7788 4.82549 23.5568 4.81459 23.4131 4.94481L22.3754 5.88567C22.3319 5.92508 22.2644 5.92185 22.2249 5.87832L21.4662 5.04152C21.336 4.89791 21.114 4.887 20.9703 5.01722C20.8267 5.14744 20.8158 5.36946 20.9461 5.51311L21.5652 6.19606L20.5183 7.14534C20.4657 7.19299 20.4288 7.25543 20.4125 7.32448L20.1243 8.54047C19.9688 9.19697 19.6224 9.78348 19.1226 10.2367L17.0644 12.1028C16.8565 12.2913 16.5339 12.2755 16.3454 12.0676C16.254 11.9668 16.2074 11.8365 16.214 11.7007C16.2207 11.5649 16.2798 11.4398 16.3806 11.3485L17.2783 10.5345C17.422 10.4043 17.4328 10.1823 17.3026 10.0386C17.1724 9.89503 16.9504 9.88412 16.8067 10.0143L15.909 10.8283C15.7671 10.9569 15.6602 11.1138 15.5931 11.2874C15.4433 11.217 15.2788 11.1797 15.1084 11.1795H15.1071C14.9306 11.1795 14.7632 11.2198 14.6137 11.2916C14.5769 11.1748 14.5216 11.0662 14.4516 10.9688L15.328 10.1742C15.4716 10.044 15.4825 9.82201 15.3523 9.67835C15.222 9.53474 15 9.52383 14.8564 9.65406L14.3592 10.1048C14.3012 9.94703 14.2076 9.79982 14.0789 9.67554L13.8017 9.4077L14.2514 9C14.395 8.86977 14.4059 8.64776 14.2757 8.5041C14.1454 8.36045 13.9234 8.34959 13.7798 8.47981L13.2956 8.91878L12.3069 7.96356C12.4631 7.9021 12.609 7.8074 12.733 7.67901C13.1696 7.22707 13.1836 6.5203 12.7836 6.05184L14.2752 4.69948C14.9851 4.05586 15.8563 3.61315 16.7947 3.41917C16.8561 3.40648 16.913 3.37756 16.9595 3.33543L18.0639 2.33405L19.9399 4.40323C20.0092 4.47967 20.1045 4.51847 20.2002 4.51847C20.2842 4.51847 20.3687 4.48842 20.4358 4.42748C20.5795 4.29726 20.5904 4.07524 20.4601 3.93159L18.4445 1.70854C18.4051 1.66501 18.4084 1.59751 18.4519 1.55805L19.4896 0.617148C19.6333 0.486926 19.6442 0.264912 19.5139 0.121255C19.3837 -0.0224008 19.1617 -0.0332604 19.018 0.0969617L17.9803 1.03787C17.788 1.21223 17.7 1.45877 17.7184 1.69955L16.5577 2.75191C15.5328 2.98095 14.5823 3.47319 13.8036 4.17925L12.2819 5.55899L10.7054 4.0363C10.1177 3.46851 9.38109 3.0968 8.57523 2.96138L7.45023 2.77232L6.38973 1.74777C6.4158 1.50769 6.33557 1.25848 6.14885 1.07807L5.14148 0.104826C5.00204 -0.0298902 4.77979 -0.0260987 4.64507 0.113392C4.51036 0.252835 4.51419 0.475083 4.65364 0.609799L5.66101 1.58305C5.70328 1.62391 5.70445 1.6915 5.66363 1.73377L1.75308 5.78156C1.72771 5.80782 1.69846 5.81372 1.67828 5.81405C1.65844 5.81367 1.62862 5.80946 1.60241 5.78414L0.594987 4.81089C0.455543 4.67617 0.233295 4.68001 0.0985793 4.81946C-0.0361364 4.9589 -0.0322981 5.18115 0.107145 5.31586L1.11452 6.28911C1.26646 6.4359 1.46535 6.51623 1.67604 6.51623C1.68081 6.51623 1.68559 6.51618 1.69036 6.51609C1.7249 6.51548 1.75889 6.51197 1.79254 6.50715L2.91886 7.59531C3.21516 8.60282 3.76914 9.51868 4.5251 10.249L5.25775 10.9569C5.32591 11.0227 5.41381 11.0555 5.50163 11.0555C5.59351 11.0555 5.68526 11.0196 5.75416 10.9483C5.88888 10.8089 5.88504 10.5866 5.74559 10.4519L5.01294 9.74407C4.32378 9.07826 3.82442 8.23823 3.56889 7.31469C3.55218 7.25426 3.51955 7.1994 3.47443 7.15582L2.40227 6.12004L6.02415 2.37103L7.04061 3.35303C7.09163 3.40232 7.15636 3.43499 7.22634 3.44674L8.45873 3.65387C9.12407 3.7657 9.73225 4.07253 10.2175 4.54132L12.2155 6.47162C12.4174 6.66667 12.423 6.98956 12.228 7.1914C12.0541 7.37133 11.7788 7.39488 11.5781 7.25979L10.6366 6.36181C10.4972 6.22709 10.2749 6.23088 10.1402 6.37037C10.0055 6.50981 10.0093 6.73206 10.1488 6.86678L13.5909 10.1807C13.6833 10.2699 13.7288 10.3897 13.7253 10.5097C13.6599 10.498 13.5928 10.4915 13.524 10.4914H13.5228C13.3656 10.4914 13.2158 10.5233 13.0794 10.5809C13.0605 10.306 12.9449 10.05 12.7484 9.85299C12.5326 9.63678 12.2456 9.51751 11.9402 9.51719H11.9388C11.8427 9.51719 11.7484 9.52903 11.6575 9.55192L10.4068 8.34369C10.2674 8.20897 10.0451 8.21277 9.91041 8.35226C9.77569 8.4917 9.77953 8.71395 9.91897 8.84866L11.05 9.94132C10.9557 10.0573 10.886 10.189 10.8437 10.3302C10.6927 10.2584 10.5265 10.2204 10.3544 10.2203H10.3531C10.2661 10.2203 10.1807 10.2302 10.0979 10.249L9.30554 9.48358C9.1661 9.34886 8.94385 9.35265 8.80914 9.49214C8.67442 9.63159 8.67826 9.85384 8.8177 9.98855L9.47869 10.6271C9.30494 10.8327 9.20987 11.0902 9.20959 11.3625L9.20935 11.5944L8.20432 10.6235C8.06488 10.4888 7.84263 10.4925 7.70791 10.632C7.5732 10.7715 7.57704 10.9937 7.71648 11.1284L9.20828 12.5696L9.20701 13.6892C9.12163 13.6747 9.04093 13.6356 8.97559 13.5724L6.82182 11.4917C6.68238 11.357 6.46008 11.3608 6.32541 11.5002C6.1907 11.6397 6.19454 11.8619 6.33398 11.9966L8.21083 13.8099C8.07471 13.8695 7.9494 13.9542 7.84108 14.0623C7.61205 14.2908 7.48576 14.5948 7.48538 14.9184L7.4823 17.6965C7.48136 18.5137 7.725 19.302 8.18677 19.9762L8.83137 20.9173L8.82973 22.3913C8.80287 22.4121 8.7767 22.4341 8.75226 22.4585C8.59934 22.6111 8.51499 22.8141 8.51476 23.0295L8.51317 23.6345C8.51265 23.8284 8.66941 23.986 8.86329 23.9865H8.86423C9.05769 23.9865 9.21478 23.83 9.2153 23.6364L9.21689 23.0309C9.21694 22.9944 9.23393 22.9698 9.24816 22.9556C9.26239 22.9413 9.28509 22.9235 9.32352 22.9244L14.9517 22.9307C15.0105 22.9307 15.0582 22.9786 15.0582 23.0369L15.0566 23.6418C15.0561 23.8357 15.2129 23.9933 15.4068 23.9938H15.4077C15.6012 23.9938 15.7583 23.8372 15.7588 23.6436L15.7603 23.0381C15.7607 22.7785 15.6374 22.5475 15.4468 22.3993L15.4485 20.8325C15.9683 19.92 16.2432 18.8855 16.2443 17.8344L16.2447 17.5144C16.2449 17.3205 16.0879 17.1632 15.894 17.1629H15.8936C15.6999 17.1629 15.5428 17.3199 15.5425 17.5136L15.5422 17.8336C15.5411 18.7918 15.2828 19.7343 14.7953 20.5592C14.7634 20.6132 14.7465 20.6747 14.7465 20.7374L14.7448 22.2283L9.53201 22.2225L9.5336 20.8092C9.53364 20.7382 9.51225 20.6689 9.47218 20.6104L8.76603 19.5793C8.38477 19.0227 8.18368 18.3719 8.18443 17.6972L8.18752 14.9191C8.18766 14.7831 8.24078 14.6553 8.33702 14.5592C8.43312 14.4634 8.56082 14.4106 8.69656 14.4106H8.69717C8.97788 14.4109 9.20598 14.6395 9.20565 14.9202L9.2043 16.132C9.20411 16.3259 9.36111 16.4833 9.55499 16.4835H9.55536C9.74906 16.4835 9.90624 16.3265 9.90643 16.1328L9.90779 14.9209L9.91172 11.3632C9.91186 11.2453 9.95787 11.1345 10.0414 11.0513C10.1247 10.9681 10.2354 10.9223 10.3531 10.9223H10.3536C10.4716 10.9225 10.5823 10.9685 10.6656 11.052C10.7489 11.1355 10.7947 11.2464 10.7945 11.3643L10.7906 14.922C10.7904 15.1158 10.9474 15.2732 11.1413 15.2734H11.1417C11.3233 15.2734 11.4727 15.1355 11.4909 14.9586C11.4921 14.9468 11.4927 14.9348 11.4927 14.9228L11.4975 10.6602C11.4976 10.5423 11.5437 10.4315 11.6272 10.3482C11.7105 10.2651 11.8212 10.2193 11.9389 10.2193H11.9394C12.0573 10.2195 12.1681 10.2655 12.2514 10.349C12.3347 10.4324 12.3805 10.5433 12.3803 10.6612L12.3756 14.9238C12.3754 15.1177 12.5324 15.275 12.7263 15.2752H12.7267C12.9083 15.2752 13.0577 15.1373 13.0759 14.9604C13.0771 14.9486 13.0777 14.9367 13.0777 14.9246L13.0814 11.6345C13.0815 11.5166 13.1275 11.4058 13.211 11.3226C13.2944 11.2394 13.4051 11.1936 13.5228 11.1936H13.5233C13.7667 11.1939 13.9645 11.3921 13.9642 11.6355L13.9606 14.9256C13.9604 15.1195 14.1174 15.2768 14.3113 15.277H14.3117C14.4933 15.277 14.6427 15.1391 14.6609 14.9622C14.6621 14.9504 14.6627 14.9384 14.6627 14.9264L14.6656 12.3224C14.666 12.0794 14.864 11.8818 15.107 11.8818H15.1075C15.2254 11.8819 15.3362 11.9279 15.4195 12.0114C15.5028 12.0949 15.5485 12.2058 15.5484 12.3237L15.5443 16.014C15.5441 16.2079 15.7011 16.3653 15.895 16.3655H15.8954C16.0891 16.3655 16.2463 16.2085 16.2464 16.0148L16.25 12.8415C16.3793 12.8962 16.5187 12.9284 16.6632 12.9354C16.6835 12.9364 16.7036 12.9369 16.7238 12.9369C17.0249 12.9369 17.3113 12.8267 17.5359 12.623L19.5941 10.7569C20.1995 10.208 20.619 9.49757 20.8075 8.70243L21.0705 7.59241L22.1624 6.60236C22.1959 6.60825 22.2298 6.61284 22.2643 6.61453C22.2778 6.61518 22.2913 6.61551 22.3047 6.61551C22.5058 6.61551 22.697 6.54188 22.847 6.40585L23.8847 5.465C24.0284 5.33477 24.0392 5.11276 23.909 4.9691Z" fill="black"/>
</svg>
