<svg width="23" height="24" viewBox="0 0 23 24" fill="none" xmlns="http://www.w3.org/2000/svg">
<path d="M3.5515 10.9223H2.05957V11.8244C2.05957 12.1966 2.36132 12.4983 2.73356 12.4983H2.87747C3.24971 12.4983 3.55146 12.1966 3.55146 11.8244V10.9223H3.5515Z" fill="#A59CA6"/>
<path d="M13.3863 17.2241L13.4776 17.2381C15.4553 17.5419 16.993 15.5483 16.1969 13.7125L15.434 11.9533C15.3587 11.7796 15.3068 11.5967 15.2799 11.4094C14.9758 9.29626 13.1653 7.72766 11.0305 7.72766C8.89569 7.72766 7.08518 9.29631 6.78118 11.4094C6.75424 11.5967 6.7024 11.7796 6.6271 11.9533L5.86412 13.7125C5.06801 15.5483 6.60563 17.5419 8.58339 17.2381L8.67468 17.2241L10.1411 16.8722H12.1181L13.3863 17.2241Z" fill="#A59CA6"/>
<path d="M12.118 19.2413L14.1356 20.0507C15.2544 20.4996 15.9877 21.584 15.9877 22.7895V23.2259C15.9877 23.4592 15.7986 23.6485 15.5651 23.6485H6.4021C6.16872 23.6485 5.97949 23.4593 5.97949 23.2259V22.7895C5.97949 21.584 6.7128 20.4996 7.83166 20.0507L9.84925 19.2413L10.4679 18.9927H11.5255L12.118 19.2413Z" fill="#DF78EF"/>
<path d="M12.118 19.2413L12.1082 19.2372L11.9768 19.2531L10.0828 19.9139V19.1475L9.84926 19.2413L7.83162 20.0508C6.71276 20.4997 5.97949 21.584 5.97949 22.7895V23.2259C5.97949 23.4593 6.16868 23.6485 6.4021 23.6485H7.11386V23.3047C7.11386 22.0992 7.84717 21.0149 8.96598 20.566L9.13689 20.4974C9.34478 20.414 9.58467 20.4512 9.75052 20.6018C10.0767 20.8979 10.5094 21.0786 10.9836 21.0786C11.9037 21.0786 12.6678 20.3988 12.8005 19.5151L12.118 19.2413Z" fill="#AB47BC"/>
<path d="M12.1181 19.2413C12.1181 19.8678 11.6102 20.3757 10.9837 20.3757C10.3572 20.3757 9.84937 19.8678 9.84937 19.2413V16.5257H12.1181V19.2413Z" fill="#FFD1C2"/>
<path d="M13.8358 12.3327V15.5671C13.8358 17.1163 12.5799 18.3723 11.0306 18.3723C9.48127 18.3723 8.22534 17.1163 8.22534 15.5671V13.1328C8.22534 12.3839 8.48032 11.6573 8.94834 11.0726C9.02975 10.9708 9.17849 10.955 9.27953 11.0372L9.41046 11.1437C9.99972 11.6231 10.7311 11.894 11.4905 11.914L13.4791 11.9664C13.6776 11.9717 13.8358 12.1341 13.8358 12.3327Z" fill="#FFE0D1"/>
<path d="M8.62951 11.7427L8.80552 11.872C9.59774 12.4541 10.5811 12.7829 11.602 12.8072L13.8357 12.8604V12.3327C13.8357 12.1342 13.6775 11.9718 13.479 11.9665L11.4904 11.9141C10.7311 11.8941 9.99964 11.6232 9.41038 11.1438L9.27945 11.0373C9.17841 10.955 9.02967 10.9709 8.94827 11.0726C8.79207 11.2678 8.6602 11.479 8.55298 11.7014C8.57988 11.7116 8.6057 11.7252 8.62951 11.7427Z" fill="#FFD1C2"/>
<path d="M5.26064 7.58157C5.26064 5.91048 3.59049 4.62948 1.82835 5.31682C1.24448 5.54453 0.778244 6.00646 0.547443 6.58911C0.193862 7.48166 0.346307 8.35139 0.799332 8.99398L1.98023 10.8324V11.1874C1.98023 11.2739 2.05034 11.344 2.13685 11.344H3.47615C3.56261 11.344 3.63272 11.2739 3.63272 11.1874V10.8325L4.81362 8.99402C5.09517 8.59456 5.26064 8.10737 5.26064 7.58157Z" fill="#98EE99"/>
<path d="M3.0259 11.1875V10.8325L1.845 8.99403C1.39197 8.35145 1.23953 7.48171 1.59311 6.58916C1.82395 6.00651 2.29015 5.54459 2.87401 5.31688C3.02538 5.25783 3.17539 5.21317 3.32442 5.18215C2.86038 5.08209 2.34826 5.11368 1.82738 5.31688C1.24351 5.54463 0.777268 6.00651 0.546467 6.58916C0.192885 7.48171 0.345331 8.35145 0.798356 8.99403L1.97926 10.8325V11.1875C1.97926 11.2739 2.04937 11.3441 2.13587 11.3441H3.18251C3.09605 11.3441 3.0259 11.274 3.0259 11.1875Z" fill="#388E3C"/>
<path d="M3.09364 8.88468H2.51694C2.32391 8.88468 2.16748 8.72821 2.16748 8.53522V7.95853C2.16748 7.7655 2.32396 7.60907 2.51694 7.60907H3.09364C3.28666 7.60907 3.44309 7.76555 3.44309 7.95853V8.53522C3.44314 8.72825 3.28666 8.88468 3.09364 8.88468Z" fill="#388E3C"/>
<path d="M10.9832 5.88915C12.5124 5.88915 13.7521 4.64949 13.7521 3.12029C13.7521 1.5911 12.5124 0.35144 10.9832 0.35144C9.45401 0.35144 8.21436 1.5911 8.21436 3.12029C8.21436 4.64949 9.45401 5.88915 10.9832 5.88915Z" fill="#DF78EF"/>
<path d="M9.42333 2.95308C9.42333 1.76848 10.1682 0.757313 11.2143 0.36193C11.1382 0.355651 11.0609 0.352417 10.9832 0.352417C9.45403 0.352417 8.21436 1.59208 8.21436 3.12127C8.21436 4.65046 9.45403 5.89008 10.9832 5.89008C11.3278 5.89008 11.6574 5.82723 11.9617 5.71223C10.5405 5.59498 9.42333 4.40457 9.42333 2.95308Z" fill="#AB47BC"/>
<path d="M19.1655 5.23717L19.8547 6.63369C19.8834 6.6918 19.9389 6.73205 20.003 6.74138L21.5441 6.96534C21.7056 6.98881 21.7701 7.18723 21.6532 7.30111L20.538 8.38814C20.4916 8.43336 20.4704 8.49855 20.4814 8.56238L20.7447 10.0973C20.7723 10.2581 20.6035 10.3808 20.459 10.3048L19.0806 9.5801C19.0233 9.54997 18.9547 9.54997 18.8974 9.5801L17.519 10.3048C17.3745 10.3807 17.2057 10.2581 17.2333 10.0973L17.4966 8.56238C17.5076 8.4985 17.4864 8.43336 17.44 8.38814L16.3248 7.30111C16.208 7.18723 16.2724 6.98877 16.4339 6.96534L17.975 6.74138C18.0391 6.73205 18.0946 6.6918 18.1233 6.63369L18.8125 5.23717C18.8847 5.09086 19.0933 5.09086 19.1655 5.23717Z" fill="#98EE99"/>
<path d="M20.745 10.0973L20.7165 9.93112L19.0973 9.07985C19.0297 9.04428 18.9489 9.04428 18.8813 9.07985L18.1143 9.48306C18.0105 9.53766 17.8891 9.44951 17.9089 9.3339L18.0703 8.39331C18.0836 8.31589 18.0579 8.23693 18.0017 8.1821L17.3729 7.56917C17.2538 7.45305 17.3195 7.25069 17.4841 7.22679L18.3519 7.10068C18.4247 7.09009 18.4876 7.0444 18.5202 6.97847L19.2727 5.45364L19.1659 5.23713C19.0937 5.09082 18.885 5.09077 18.8128 5.23713L18.1236 6.63365C18.0949 6.69176 18.0395 6.73201 17.9754 6.74134L16.4342 6.9653C16.2727 6.98878 16.2082 7.18719 16.3251 7.30112L17.4403 8.38815C17.4867 8.43338 17.5078 8.49856 17.4969 8.56239L17.2336 10.0973C17.206 10.2581 17.3748 10.3808 17.5192 10.3048L18.8977 9.58012C18.9551 9.54998 19.0236 9.54998 19.081 9.58012L20.4594 10.3048C20.6038 10.3808 20.7725 10.2582 20.745 10.0973Z" fill="#388E3C"/>
<path d="M15.7561 11.8134C15.6932 11.6685 15.65 11.5158 15.6275 11.3593C15.569 10.9529 15.4566 10.5555 15.2935 10.178C15.2166 9.99983 15.0099 9.91768 14.8315 9.99472C14.6533 10.0717 14.5713 10.2786 14.6483 10.4567C14.7867 10.7772 14.8821 11.1146 14.9317 11.4594C14.9631 11.6777 15.0236 11.8909 15.1112 12.0931L15.8742 13.8523C16.1964 14.5953 16.0935 15.4217 15.5989 16.063C15.1775 16.6093 14.5538 16.9135 13.8835 16.9161C14.0778 16.5068 14.1869 16.0495 14.1869 15.5671V12.3326C14.1869 11.9406 13.8799 11.6254 13.4879 11.6151L11.4994 11.5627C10.8213 11.5448 10.1581 11.2992 9.63187 10.8711L9.50098 10.7646C9.37886 10.6652 9.22543 10.6198 9.06881 10.6364C8.91224 10.6531 8.77184 10.7301 8.67348 10.853C8.15756 11.4976 7.87343 12.3072 7.87343 13.1328V15.5671C7.87343 16.0495 7.98258 16.5067 8.17687 16.9161C7.50663 16.9136 6.88284 16.6093 6.4615 16.063C5.96686 15.4217 5.86395 14.5954 6.18618 13.8523L6.94911 12.0932C7.03679 11.8909 7.09719 11.6777 7.12864 11.4594C7.26365 10.5211 7.73261 9.66246 8.44905 9.04172C9.16549 8.42097 10.0822 8.0791 11.0301 8.0791C12.1014 8.0791 13.1039 8.50195 13.8527 9.2698C13.9882 9.40884 14.2108 9.41151 14.3497 9.27603C14.4887 9.14055 14.4915 8.91795 14.3559 8.77905C13.4737 7.87436 12.2925 7.37616 11.0301 7.37616C9.91305 7.37616 8.8329 7.77899 7.98871 8.51043C7.14452 9.24187 6.59192 10.2536 6.43282 11.3593C6.41032 11.5158 6.36707 11.6685 6.30418 11.8134L5.54125 13.5726C5.11568 14.5539 5.25159 15.6453 5.90486 16.4923C6.46365 17.2168 7.29153 17.6206 8.18099 17.6205C8.32214 17.6205 8.46508 17.6099 8.60852 17.5892C8.85648 17.8857 9.15776 18.1358 9.49742 18.3253V19.0036L7.70037 19.7246C6.44125 20.2297 5.62766 21.4329 5.62766 22.7895V23.6485C5.62766 23.8426 5.78498 24 5.97913 24C6.17329 24 6.33061 23.8426 6.33061 23.6485V22.7895C6.33061 21.7216 6.97104 20.7746 7.96214 20.377L9.57971 19.728C9.78174 20.3089 10.3344 20.7271 10.9833 20.7271C11.6321 20.7271 12.1848 20.3089 12.3868 19.728L14.0046 20.3771C14.047 20.3941 14.0919 20.4138 14.1458 20.4392C14.1941 20.4619 14.245 20.4727 14.2952 20.4727C14.4271 20.4727 14.5536 20.398 14.6135 20.2707C14.6961 20.0951 14.6206 19.8857 14.445 19.8031C14.3784 19.7718 14.3215 19.7468 14.2662 19.7246L12.4691 19.0036V18.3752C12.8472 18.1807 13.1813 17.9127 13.4518 17.5892C13.5953 17.61 13.7381 17.6205 13.8793 17.6205C14.7687 17.6205 15.5967 17.2167 16.1554 16.4923C16.8087 15.6454 16.9446 14.5539 16.519 13.5726L15.7561 11.8134ZM11.7662 19.2414C11.7662 19.673 11.415 20.0242 10.9833 20.0242C10.5516 20.0242 10.2004 19.673 10.2004 19.2414V18.6123C10.465 18.6845 10.743 18.7238 11.0302 18.7238C11.2836 18.7238 11.5299 18.6929 11.7662 18.6362V19.2414ZM11.0302 18.0208C9.67719 18.0208 8.57642 16.9201 8.57642 15.5671V13.1329C8.57642 12.5056 8.77953 11.8899 9.15054 11.3858L9.18827 11.4165C9.83423 11.9419 10.6484 12.2434 11.4809 12.2654L13.4694 12.3178C13.4776 12.318 13.484 12.3246 13.484 12.3327V15.5671C13.4839 16.9201 12.3832 18.0208 11.0302 18.0208Z" fill="black"/>
<path d="M15.2417 20.7979C15.0833 20.91 15.0457 21.1294 15.1579 21.2878C15.4708 21.7298 15.6362 22.2491 15.6362 22.7896V23.6486C15.6362 23.8427 15.7935 24 15.9877 24C16.1818 24 16.3391 23.8427 16.3391 23.6486V22.7896C16.3391 22.1028 16.1291 21.4431 15.7316 20.8817C15.6195 20.7232 15.4001 20.6857 15.2417 20.7979Z" fill="black"/>
<path d="M4.38669 5.26367C3.60375 4.72869 2.62441 4.62854 1.69962 4.98934C1.02503 5.25243 0.485681 5.78835 0.219687 6.45962C0.0466217 6.89652 -0.0247975 7.34331 0.00758478 7.78762C0.0217374 7.98121 0.189507 8.12686 0.38366 8.11266C0.577251 8.09856 0.72276 7.93018 0.708701 7.73659C0.684098 7.39875 0.739444 7.05623 0.873237 6.71858C1.06753 6.22821 1.46188 5.83667 1.95512 5.64425C2.66012 5.36926 3.40192 5.44208 3.99014 5.84407C4.56505 6.23688 4.90823 6.88645 4.90823 7.58161C4.90823 8.01791 4.77584 8.43621 4.52541 8.79147C4.5225 8.7956 4.51969 8.79982 4.51692 8.80403L3.33603 10.6425C3.29966 10.6992 3.28031 10.7651 3.28031 10.8325V10.9925H3.15701V9.23297C3.51401 9.20092 3.79481 8.90043 3.79481 8.53523V7.95848C3.79481 7.57201 3.48036 7.25755 3.09388 7.25755H2.51714C2.13066 7.25755 1.81621 7.57201 1.81621 7.95848V8.53523C1.81621 8.90038 2.09706 9.20092 2.45402 9.23297V10.9926H2.33072V10.8325C2.33072 10.7651 2.31137 10.6992 2.275 10.6425L1.20034 8.96946C1.09546 8.80614 0.878017 8.75881 0.714653 8.86369C0.551382 8.96857 0.504004 9.18606 0.608883 9.34938L1.62778 10.9356V11.1874C1.62778 11.288 1.65749 11.3815 1.70805 11.4605V11.8244C1.70805 12.3898 2.16806 12.8499 2.73356 12.8499H2.87743C3.44287 12.8499 3.90293 12.3898 3.90293 11.8244V11.4605C3.95349 11.3815 3.9832 11.288 3.9832 11.1874V10.9356L5.1044 9.19014C5.43591 8.7171 5.61113 8.16107 5.61113 7.58166C5.61113 6.6541 5.15342 5.7876 4.38669 5.26367ZM3.09182 7.95848L3.09407 8.53321L2.82419 8.53415C2.81796 8.53382 2.81177 8.53321 2.80544 8.53321C2.79818 8.53321 2.79106 8.53387 2.78393 8.53429L2.51911 8.53523L2.5171 7.9605L3.09182 7.95848ZM3.19998 11.8244C3.19998 12.0022 3.05527 12.1469 2.87743 12.1469H2.73356C2.55571 12.1469 2.411 12.0022 2.411 11.8244V11.6955H3.19998V11.8244Z" fill="black"/>
<path d="M10.9834 6.24061C12.7039 6.24061 14.1037 4.84085 14.1037 3.12028C14.1037 1.39975 12.7039 0 10.9834 0C9.26279 0 7.86304 1.39975 7.86304 3.12028C7.86304 4.84085 9.26279 6.24061 10.9834 6.24061ZM10.9834 0.702945C12.3163 0.702945 13.4007 1.78735 13.4007 3.12028C13.4007 4.4532 12.3163 5.53766 10.9834 5.53766C9.65044 5.53766 8.56598 4.4532 8.56598 3.12028C8.56598 1.78735 9.65044 0.702945 10.9834 0.702945Z" fill="black"/>
<path d="M10.3655 4.29318C10.4341 4.36179 10.524 4.39609 10.614 4.39609C10.7039 4.39609 10.7939 4.36179 10.8625 4.29318L12.5045 2.6512C12.6418 2.51389 12.6418 2.29138 12.5045 2.15412C12.3672 2.0169 12.1447 2.0169 12.0074 2.15412L10.614 3.54759L10.3776 3.31117C10.2403 3.17395 10.0178 3.17391 9.88053 3.31121C9.74327 3.44848 9.74327 3.67103 9.88058 3.80824L10.3655 4.29318Z" fill="black"/>
<path d="M22.0377 6.99078C21.9727 6.79072 21.8031 6.64774 21.595 6.61747L20.1343 6.40522L19.4811 5.08158C19.388 4.89305 19.1996 4.77594 18.9893 4.77594C18.7792 4.77594 18.5907 4.89305 18.4977 5.08158L17.8444 6.40522L16.3837 6.61747C16.1756 6.64774 16.006 6.79072 15.941 6.99073C15.8761 7.19069 15.9293 7.40603 16.0798 7.55276L17.1368 8.58304L16.8873 10.0379C16.8518 10.2451 16.9354 10.4506 17.1055 10.5742C17.2755 10.6978 17.4968 10.7138 17.6829 10.6159L18.9894 9.92904L20.2959 10.6159C20.3769 10.6585 20.4644 10.6795 20.5516 10.6795C20.6648 10.6795 20.7773 10.6439 20.8734 10.5741C21.0435 10.4505 21.127 10.245 21.0915 10.0379L20.842 8.58309L21.8989 7.5528C22.0494 7.40608 22.1026 7.19069 22.0377 6.99078ZM20.2931 8.13634C20.1638 8.26231 20.1048 8.44376 20.1353 8.62175L20.3456 9.84792L19.2445 9.26902C19.1646 9.22703 19.077 9.20599 18.9893 9.20599C18.9017 9.20599 18.814 9.22698 18.7341 9.26897L17.633 9.84792L17.8433 8.62165C17.8738 8.44372 17.8148 8.26226 17.6856 8.13639L16.7947 7.26806L18.026 7.08919C18.2046 7.06313 18.3589 6.95099 18.4387 6.78922L18.9893 5.6736L19.5398 6.78903C19.6196 6.95094 19.774 7.06313 19.9527 7.08914L21.1838 7.26802L20.2931 8.13634Z" fill="black"/>
<path d="M14.7104 4.5084C15.2467 4.7176 15.7664 4.97384 16.2614 5.27138C16.1067 5.34406 16.0239 5.5205 16.0742 5.68935C16.1196 5.84189 16.2594 5.94053 16.4109 5.94053C16.4441 5.94053 16.4779 5.93575 16.5114 5.92582L17.1772 5.72749C17.3262 5.68316 17.4283 5.54613 17.4283 5.39064V4.67045C17.4283 4.4763 17.271 4.31898 17.0768 4.31898C16.8827 4.31898 16.7254 4.4763 16.7254 4.67045V4.73119C16.166 4.3866 15.5761 4.09155 14.9658 3.85349C14.785 3.78291 14.5812 3.87233 14.5107 4.05322C14.4402 4.23406 14.5296 4.43782 14.7104 4.5084Z" fill="black"/>
<path d="M5.43727 5.37408C5.50001 5.37408 5.56356 5.3573 5.62092 5.32206C5.94906 5.12046 6.29073 4.93666 6.63991 4.77311L6.62163 4.84153C6.57149 5.02903 6.68288 5.22168 6.87043 5.27187C6.90079 5.27998 6.93135 5.28387 6.96139 5.28387C7.1166 5.28387 7.25873 5.18016 7.30072 5.02307L7.51536 4.21994C7.56316 4.04125 7.46418 3.85604 7.28905 3.79648L6.64497 3.57726C6.46136 3.51455 6.26154 3.61292 6.19902 3.79676C6.1538 3.92957 6.19288 4.0704 6.28727 4.16206C5.93308 4.33035 5.58648 4.51827 5.253 4.72315C5.08762 4.8248 5.03588 5.04121 5.13748 5.20659C5.20384 5.31456 5.31917 5.37408 5.43727 5.37408Z" fill="black"/>
</svg>
