<svg width="20" height="24" viewBox="0 0 20 24" fill="none" xmlns="http://www.w3.org/2000/svg">
<path d="M8.5708 1.57349H11.2344V5.88673H8.5708V1.57349Z" fill="#F2EAE7"/>
<path d="M17.3366 8.10236L18.3936 6.94341C18.5651 6.75533 18.5517 6.46383 18.3637 6.29228L16.9841 5.03405C16.796 4.86254 16.5045 4.87593 16.333 5.06402L15.288 6.20971L14.4397 7.16465L16.311 9.11476L17.3366 8.10236Z" fill="#F2EAE7"/>
<path d="M4.517 6.20971L3.47204 5.06402C3.30049 4.87593 3.009 4.86254 2.82091 5.03405L1.44133 6.29228C1.25325 6.46379 1.23985 6.75533 1.4114 6.94341L2.4684 8.10236C2.4684 8.10236 3.42287 9.19241 3.42287 9.11706C3.42287 9.0417 5.51554 7.20132 5.51554 7.20132L4.517 6.20971Z" fill="#F2EAE7"/>
<path d="M9.90339 23.6487C15.1782 23.6487 19.4542 19.3726 19.4542 14.0979C19.4542 8.82306 15.1782 4.547 9.90339 4.547C4.6286 4.547 0.352539 8.82306 0.352539 14.0979C0.352539 19.3726 4.6286 23.6487 9.90339 23.6487Z" fill="#DF78EF"/>
<path d="M3.78555 14.4492C3.78555 10.0962 6.312 6.33325 9.97903 4.54757C9.95323 4.54739 9.92831 4.54706 9.90242 4.54706C4.62762 4.54706 0.351562 8.82312 0.351562 14.0979C0.351562 18.9374 3.95027 22.9364 8.61805 23.5634C5.70124 21.5838 3.78555 18.2399 3.78555 14.4492Z" fill="#AB47BC"/>
<path d="M15.2655 19.4609L15.266 19.4614C13.8933 20.8336 11.997 21.6827 9.9026 21.6827C5.71379 21.6827 2.31787 18.2868 2.31787 14.098C2.31787 9.90916 5.71379 6.51324 9.9026 6.51324V12.2007V13.9158L11.2439 15.4393L15.2655 19.4609Z" fill="#F9F7F7"/>
<path d="M6.33602 7.40198C3.94474 8.67824 2.31787 11.1982 2.31787 14.0979C2.31787 16.606 3.53592 18.8303 5.41208 20.2111C4.38094 18.5352 3.78573 16.5612 3.78573 14.4491C3.78569 11.7684 4.74339 9.31116 6.33602 7.40198Z" fill="#F8F3F2"/>
<path d="M9.90259 6.51324C14.0914 6.51324 17.4873 9.90916 17.4873 14.098C17.4873 16.1924 16.6382 18.0887 15.266 19.4614L15.2655 19.4609L11.2439 15.4393L9.90259 13.9158V12.2007V6.51324Z" fill="#F2EAE7"/>
<path d="M9.90242 15.9949C10.9501 15.9949 11.7995 15.1456 11.7995 14.0979C11.7995 13.0501 10.9501 12.2008 9.90242 12.2008C8.85471 12.2008 8.00537 13.0501 8.00537 14.0979C8.00537 15.1456 8.85471 15.9949 9.90242 15.9949Z" fill="#DF78EF"/>
<path d="M9.12732 14.0976C9.12732 13.2453 9.68891 12.5241 10.4625 12.2846C10.2854 12.2299 10.0975 12.2008 9.90242 12.2008C8.8547 12.2008 8.00537 13.0501 8.00537 14.0979C8.00537 15.1456 8.8547 15.9949 9.90242 15.9949C10.098 15.9949 10.2865 15.9653 10.464 15.9104C9.6898 15.6713 9.12732 14.9502 9.12732 14.0976Z" fill="#AB47BC"/>
<path d="M11.8111 3.04546H8.04073C7.70395 3.04546 7.43091 2.77242 7.43091 2.43564V0.961079C7.43091 0.624298 7.70395 0.351257 8.04073 0.351257H11.8111C12.1478 0.351257 12.4209 0.624298 12.4209 0.961079V2.43564C12.4209 2.77247 12.1478 3.04546 11.8111 3.04546Z" fill="#DF78EF"/>
<path d="M8.98901 0.351257H10.8627V3.04546H8.98901V0.351257Z" fill="#AB47BC"/>
<path d="M17.793 8.12289L18.6528 7.18018C18.799 7.01991 18.874 6.81225 18.8641 6.59555C18.8541 6.3789 18.7603 6.17901 18.6 6.03284L17.2205 4.77461C17.0602 4.62839 16.852 4.55379 16.6359 4.56339C16.4192 4.57336 16.2193 4.66712 16.0732 4.82739L15.2285 5.75357C14.1401 5.05645 12.907 4.56681 11.5853 4.33952V3.39676H11.8107C12.3406 3.39676 12.7718 2.96561 12.7718 2.43568V0.961075C12.7718 0.431151 12.3406 0 11.8107 0H8.04042C7.51049 0 7.07934 0.431151 7.07934 0.961075V2.43564C7.07934 2.96556 7.51049 3.39671 8.04042 3.39671H8.21909V4.33947C6.89735 4.56676 5.66421 5.05641 4.57589 5.75353L3.73115 4.82734C3.58494 4.66708 3.3851 4.57332 3.1684 4.56334C2.95174 4.55379 2.74404 4.62839 2.58377 4.77456L1.20419 6.0328C0.873356 6.33459 0.849658 6.8493 1.15145 7.18013L2.01128 8.12289C0.749808 9.78479 0 11.8553 0 14.0978C0 16.2587 0.68382 18.312 1.97751 20.0359C2.09398 20.191 2.31415 20.2224 2.46926 20.106C2.62442 19.9895 2.6558 19.7693 2.53937 19.6142C1.33771 18.013 0.702506 16.1054 0.702506 14.0979C0.702506 9.02524 4.82945 4.89829 9.90211 4.89829C14.9748 4.89829 19.1018 9.02524 19.1018 14.0979C19.1018 19.1705 14.9748 23.2975 9.90211 23.2975C7.49696 23.2975 5.22178 22.3748 3.49562 20.6993C3.35643 20.5641 3.13407 20.5675 2.99895 20.7067C2.86384 20.8458 2.86716 21.0682 3.00635 21.2033C4.86429 23.0068 7.31328 24 9.90211 24C15.3622 24 19.8043 19.5579 19.8043 14.0978C19.8043 11.8553 19.0545 9.78479 17.793 8.12289ZM9.34001 2.69421V0.702506H10.5111V2.69421H9.34001ZM12.0693 0.961075V2.43564C12.0693 2.5782 11.9533 2.69421 11.8108 2.69421H11.2137V0.702506H11.8108C11.9533 0.702506 12.0693 0.818513 12.0693 0.961075ZM7.78185 2.43564V0.961075C7.78185 0.818513 7.89786 0.702506 8.04042 0.702506H8.6375V2.69421H8.04042C7.89781 2.69421 7.78185 2.57824 7.78185 2.43564ZM2.46055 7.57292L1.67056 6.70678C1.64522 6.67905 1.6411 6.64857 1.64204 6.62786C1.64302 6.60716 1.64995 6.57719 1.67768 6.5519L3.05726 5.29366C3.08499 5.26837 3.11533 5.26416 3.13618 5.26514C3.15313 5.26594 3.18554 5.27161 3.21214 5.30078L3.99305 6.157C3.43376 6.57424 2.92018 7.04932 2.46055 7.57292ZM8.92159 4.24426V3.39671H10.8828V4.24426C10.5601 4.21241 10.2331 4.19574 9.90215 4.19574C9.57127 4.19574 9.24423 4.21241 8.92159 4.24426ZM15.8113 6.157L16.5923 5.30078C16.6189 5.27161 16.6513 5.26594 16.6682 5.26514C16.6893 5.26416 16.7194 5.26837 16.7471 5.29366L18.1267 6.5519C18.1559 6.57855 18.1615 6.61091 18.1623 6.62786C18.1633 6.64857 18.1591 6.67901 18.1338 6.70678L17.3438 7.57292C16.8841 7.04932 16.3706 6.57424 15.8113 6.157Z" fill="black"/>
<path d="M15.2225 9.19753C15.354 9.34014 15.5762 9.34932 15.7189 9.21781C15.8616 9.08635 15.8706 8.86413 15.7392 8.72147C14.2401 7.09479 12.1126 6.16187 9.90233 6.16187C5.52638 6.16187 1.96631 9.72193 1.96631 14.0979C1.96631 18.4738 5.52638 22.0339 9.90229 22.0339C14.2782 22.0339 17.8383 18.4738 17.8383 14.0978C17.8383 12.6384 17.4386 11.2116 16.6823 9.97156C16.5813 9.80586 16.3652 9.75359 16.1995 9.85452C16.0339 9.95554 15.9815 10.1717 16.0825 10.3373C16.7716 11.4672 17.1358 12.7675 17.1358 14.0978C17.1358 15.966 16.4238 17.671 15.2571 18.9559L11.72 15.4188C11.9904 15.0476 12.1505 14.5912 12.1505 14.0978C12.1505 12.9776 11.3269 12.0463 10.2534 11.8771V6.87327C12.1409 6.96591 13.9357 7.80119 15.2225 9.19753ZM7.65399 14.0979C7.65399 15.3376 8.6626 16.3462 9.90229 16.3462C10.3956 16.3462 10.8521 16.1861 11.2233 15.9156L14.7604 19.4527C13.5565 20.5459 11.9838 21.2396 10.2535 21.3227V20.9626C10.2535 20.7687 10.0963 20.6114 9.90229 20.6114C9.7083 20.6114 9.55103 20.7687 9.55103 20.9626V21.3227C7.82086 21.2396 6.24808 20.5459 5.04422 19.4527L5.29656 19.2004C5.43374 19.0632 5.43374 18.8408 5.29656 18.7037C5.15939 18.5665 4.93697 18.5665 4.79984 18.7037L4.5475 18.956C3.45431 17.7521 2.76061 16.1794 2.67748 14.4492H3.03758C3.23157 14.4492 3.38884 14.2919 3.38884 14.0979C3.38884 13.904 3.23157 13.7467 3.03758 13.7467H2.67748C2.76061 12.0165 3.45431 10.4437 4.5475 9.23987L4.79984 9.49221C4.86841 9.56078 4.95833 9.59511 5.0482 9.59511C5.13808 9.59511 5.228 9.56082 5.29656 9.49221C5.43374 9.35504 5.43374 9.13262 5.29656 8.99549L5.04422 8.74315C6.24808 7.64996 7.82086 6.95626 9.55103 6.87313V11.8773C8.4776 12.0463 7.65399 12.9776 7.65399 14.0979ZM11.4481 14.0979C11.4481 14.9503 10.7547 15.6437 9.90229 15.6437C9.04991 15.6437 8.35649 14.9502 8.35649 14.0979C8.35649 13.2456 9.04996 12.5521 9.90229 12.5521C10.7547 12.552 11.4481 13.2455 11.4481 14.0979Z" fill="black"/>
</svg>
