<svg width="23" height="24" viewBox="0 0 23 24" fill="none" xmlns="http://www.w3.org/2000/svg">
<path d="M16.9182 14.2315H6.84814V10.4671C6.84814 10.0597 7.17833 9.72955 7.58565 9.72955H16.1807C16.588 9.72955 16.9182 10.0597 16.9182 10.4671V14.2315Z" fill="#98EE99"/>
<path d="M8.1746 11.6858C8.1746 11.2785 8.50478 10.9483 8.91211 10.9483H16.9182V10.4671C16.9182 10.0597 16.588 9.72955 16.1807 9.72955H7.58565C7.17833 9.72955 6.84814 10.0597 6.84814 10.4671V14.2315H8.1746V11.6858Z" fill="#388E3C"/>
<path d="M19.2622 17.3667H4.50415V14.0741C4.50415 13.5909 4.89585 13.1992 5.37899 13.1992H18.3873C18.8705 13.1992 19.2622 13.5909 19.2622 14.0741V17.3667Z" fill="#98EE99"/>
<path d="M6.17829 15.1725C6.17829 14.6893 6.56998 14.2976 7.05313 14.2976H19.2622V14.0741C19.2622 13.5909 18.8705 13.1992 18.3873 13.1992H5.37899C4.89585 13.1992 4.50415 13.5909 4.50415 14.0741V17.3667H6.17829V15.1725Z" fill="#388E3C"/>
<path d="M12.1824 0.447035L13.2497 2.60962C13.2941 2.69961 13.3799 2.76197 13.4792 2.77638L15.8658 3.12317C16.1158 3.15949 16.2157 3.46682 16.0348 3.64315L14.3078 5.32648C14.236 5.39654 14.2032 5.49742 14.2202 5.59632L14.6278 7.97324C14.6705 8.2223 14.4091 8.41219 14.1855 8.29461L12.0509 7.17235C11.9621 7.12566 11.856 7.12566 11.7672 7.17235L9.63255 8.29461C9.40888 8.41219 9.14748 8.22225 9.19023 7.97324L9.59793 5.59632C9.61486 5.49742 9.58211 5.39654 9.51023 5.32648L7.78331 3.64315C7.60238 3.46677 7.70223 3.15949 7.95227 3.12317L10.3389 2.77638C10.4381 2.76193 10.524 2.69957 10.5684 2.60962L11.6357 0.447035C11.7475 0.220454 12.0706 0.220454 12.1824 0.447035Z" fill="#DF78EF"/>
<path d="M14.6277 7.97334L14.5655 7.61045L12.1471 6.33899C12.0427 6.28409 11.918 6.28409 11.8136 6.33899L10.5138 7.0223C10.3865 7.08921 10.2377 6.98115 10.262 6.8394L10.5666 5.0633C10.5836 4.96439 10.5508 4.86351 10.4789 4.79346L9.63602 3.97183C9.47799 3.81779 9.56521 3.54945 9.78358 3.51773L11.1595 3.3178C11.2588 3.30335 11.3446 3.24099 11.389 3.15104L12.4529 0.995447L12.1822 0.447035C12.0704 0.220454 11.7473 0.220454 11.6355 0.447035L10.5681 2.60962C10.5237 2.69961 10.4379 2.76197 10.3386 2.77638L7.95202 3.12317C7.70198 3.15949 7.60213 3.46677 7.78306 3.64319L9.50999 5.32653C9.58182 5.39654 9.61462 5.49746 9.59768 5.59637L9.19003 7.97329C9.14733 8.22235 9.40873 8.41228 9.6324 8.2947L11.767 7.17249C11.8558 7.12581 11.9619 7.12581 12.0508 7.17249L14.1854 8.29475C14.409 8.41228 14.6704 8.22235 14.6277 7.97334Z" fill="#AB47BC"/>
<path d="M20.7506 21.3598H3.06201V17.1394C3.06201 16.7208 3.40144 16.3813 3.82011 16.3813H19.9925C20.4112 16.3813 20.7506 16.7208 20.7506 17.1394V21.3598H20.7506Z" fill="#98EE99"/>
<path d="M4.79227 18.2636C4.79227 17.8449 5.13169 17.5055 5.55037 17.5055H20.7506V17.1396C20.7506 16.7209 20.4112 16.3815 19.9925 16.3815H3.82011C3.40144 16.3815 3.06201 16.7209 3.06201 17.1396V21.36H4.79227V18.2636Z" fill="#388E3C"/>
<path d="M21.6395 23.6481H2.17401C1.87996 23.6481 1.6416 23.4097 1.6416 23.1157V20.4748C1.6416 19.9789 2.04362 19.577 2.53948 19.577H21.274C21.7699 19.577 22.1719 19.979 22.1719 20.4748V23.1157C22.1719 23.4097 21.9336 23.6481 21.6395 23.6481Z" fill="#98EE99"/>
<path d="M3.70758 21.5925C3.70758 21.0966 4.10959 20.6946 4.60545 20.6946H22.1719V20.4748C22.1719 19.9789 21.7699 19.577 21.274 19.577H2.53948C2.04357 19.577 1.6416 19.9789 1.6416 20.4748V23.1157C1.6416 23.4098 1.87996 23.6482 2.17401 23.6482H3.70758V21.5925Z" fill="#388E3C"/>
<path d="M21.4653 12.2525V10.693C21.4653 10.6449 21.5043 10.6059 21.5523 10.6059H22.3276C22.4023 10.6059 22.4423 10.5179 22.3932 10.4616L20.8167 8.65548C20.782 8.61574 20.7202 8.61574 20.6855 8.65548L19.109 10.4616C19.0599 10.5179 19.0999 10.6059 19.1746 10.6059H19.9498C19.9979 10.6059 20.0369 10.6449 20.0369 10.693V12.2525C20.0369 12.3389 20.107 12.409 20.1934 12.409H21.3088C21.3952 12.409 21.4653 12.3389 21.4653 12.2525Z" fill="#DF78EF"/>
<path d="M2.72946 14.1653V12.5847C2.72946 12.5366 2.76845 12.4977 2.8165 12.4977H3.59173C3.66647 12.4977 3.70645 12.4097 3.65732 12.3534L2.08083 10.5472C2.04615 10.5075 1.98436 10.5075 1.94968 10.5472L0.373189 12.3534C0.324062 12.4097 0.364039 12.4977 0.438784 12.4977H1.21401C1.26211 12.4977 1.30105 12.5366 1.30105 12.5847V14.1653C1.30105 14.2401 1.36172 14.3008 1.43656 14.3008H2.594C2.66879 14.3008 2.72946 14.2401 2.72946 14.1653Z" fill="#DF78EF"/>
<path d="M21.2739 19.225H21.1028V17.1395C21.1028 16.5274 20.6049 16.0295 19.9928 16.0295H19.6141V14.0741C19.6141 13.3977 19.0638 12.8473 18.3873 12.8473H17.2701V10.467C17.2701 9.86631 16.7814 9.37762 16.1807 9.37762H7.58559C6.9849 9.37762 6.49618 9.86631 6.49618 10.467V12.8473H5.3789C4.70248 12.8473 4.15215 13.3977 4.15215 14.0741V16.0295H3.82042C3.20838 16.0295 2.71041 16.5274 2.71041 17.1395V19.225H2.53934C1.85016 19.225 1.28955 19.7856 1.28955 20.4747V23.6481C1.28955 23.8425 1.44711 24 1.64146 24H22.1718C22.3662 24 22.5237 23.8425 22.5237 23.6481V20.4747C22.5237 19.7856 21.963 19.225 21.2739 19.225ZM4.85601 14.0741C4.85601 13.7857 5.09061 13.5511 5.37894 13.5511H13.616C13.8103 13.5511 13.9679 13.3936 13.9679 13.1992C13.9679 13.0048 13.8103 12.8473 13.616 12.8473H7.19999V10.467C7.19999 10.2544 7.37299 10.0814 7.58559 10.0814H16.1807C16.3933 10.0814 16.5662 10.2544 16.5662 10.467V12.8473H15.1157C14.9213 12.8473 14.7638 13.0048 14.7638 13.1992C14.7638 13.3936 14.9213 13.5511 15.1157 13.5511H18.3873C18.6757 13.5511 18.9103 13.7857 18.9103 14.0741V16.0295H4.85601V14.0741ZM21.8198 23.2961H1.99332V20.4747C1.99332 20.1737 2.23824 19.9288 2.53929 19.9288H6.69461C6.88895 19.9288 7.04651 19.7713 7.04651 19.5769C7.04651 19.3825 6.88895 19.225 6.69461 19.225H3.41418V17.1395C3.41418 16.9155 3.59642 16.7333 3.82037 16.7333H19.9927C20.2167 16.7333 20.3989 16.9155 20.3989 17.1395V19.225H8.19429C7.99994 19.225 7.84238 19.3825 7.84238 19.5769C7.84238 19.7713 7.99994 19.9288 8.19429 19.9288H21.2738C21.5749 19.9288 21.8198 20.1737 21.8198 20.4747V23.2961Z" fill="black"/>
<path d="M9.24448 5.63609L8.84101 7.98861C8.79845 8.23682 8.89853 8.48293 9.10226 8.63096C9.30599 8.7789 9.571 8.79814 9.79392 8.68093L11.9066 7.57022L14.0193 8.68093C14.1163 8.73189 14.2212 8.75708 14.3256 8.75708C14.4612 8.75708 14.5959 8.71457 14.7111 8.63091C14.9148 8.48293 15.0149 8.23678 14.9722 7.98861L14.5687 5.63609L16.278 3.96998C16.4583 3.79421 16.522 3.53624 16.4442 3.29671C16.3664 3.05718 16.1633 2.88592 15.914 2.84974L15.376 2.77157C15.1839 2.74323 15.0051 2.87686 14.9771 3.06924C14.9492 3.26157 15.0824 3.4401 15.2748 3.46807L15.7184 3.53253L14.0598 5.14934C13.905 5.30023 13.8343 5.51752 13.8709 5.73069L14.2625 8.01362L12.2123 6.93575C12.0209 6.83511 11.7923 6.83506 11.601 6.93575L9.55078 8.01362L9.94233 5.73064C9.97889 5.51748 9.90822 5.30014 9.75343 5.14938L8.09477 3.53253L10.387 3.19944C10.601 3.16833 10.7858 3.03405 10.8815 2.84017L11.9066 0.763075L12.9318 2.84012C13.0274 3.034 13.2123 3.16833 13.4262 3.19944L13.785 3.25157C13.9774 3.27987 14.1559 3.14623 14.1839 2.95395C14.2118 2.76158 14.0786 2.58304 13.8862 2.55508L13.5519 2.50652L12.4956 0.366171C12.3842 0.140294 12.1585 0 11.9066 0C11.6548 0 11.4291 0.140294 11.3177 0.366124L10.2613 2.50652L7.89921 2.84974C7.65001 2.88592 7.44684 3.05723 7.36905 3.29671C7.29125 3.53619 7.35492 3.79421 7.53524 3.96993L9.24448 5.63609Z" fill="black"/>
<path d="M11.9065 5.90051C12.1009 5.90051 12.2584 5.743 12.2584 5.54861V3.59824C12.2584 3.40385 12.1009 3.24634 11.9065 3.24634H11.4896C11.2953 3.24634 11.1377 3.40385 11.1377 3.59824C11.1377 3.79264 11.2953 3.95015 11.4896 3.95015H11.5546V5.54861C11.5546 5.74295 11.7121 5.90051 11.9065 5.90051Z" fill="black"/>
<path d="M17.9525 2.63949C18.0425 2.63949 18.1326 2.60515 18.2014 2.53646L18.7855 1.95229C18.923 1.81481 18.923 1.59203 18.7855 1.4546C18.648 1.31722 18.4253 1.31722 18.2878 1.4546L17.7037 2.03877C17.5662 2.17624 17.5662 2.39902 17.7037 2.53646C17.7724 2.6051 17.8625 2.63949 17.9525 2.63949Z" fill="black"/>
<path d="M18.2878 7.94008C18.3565 8.00877 18.4466 8.04312 18.5366 8.04312C18.6267 8.04312 18.7168 8.00877 18.7855 7.94008C18.923 7.8026 18.923 7.57982 18.7855 7.44239L18.2014 6.85823C18.0639 6.72084 17.8411 6.72084 17.7037 6.85823C17.5662 6.9957 17.5662 7.21849 17.7037 7.35592L18.2878 7.94008Z" fill="black"/>
<path d="M17.6008 4.6973C17.6008 4.8917 17.7583 5.04921 17.9527 5.04921H18.9994C19.1938 5.04921 19.3513 4.8917 19.3513 4.6973C19.3513 4.50291 19.1938 4.3454 18.9994 4.3454H17.9527C17.7584 4.3454 17.6008 4.50296 17.6008 4.6973Z" fill="black"/>
<path d="M5.61156 2.53644C5.68025 2.60513 5.77034 2.63948 5.86038 2.63948C5.95042 2.63948 6.04051 2.60513 6.1092 2.53644C6.24663 2.39896 6.24663 2.17618 6.1092 2.03875L5.52503 1.45454C5.3876 1.31716 5.16477 1.31716 5.02739 1.45454C4.88996 1.59202 4.88996 1.8148 5.02739 1.95223L5.61156 2.53644Z" fill="black"/>
<path d="M5.61156 6.85817L5.02739 7.44233C4.88996 7.57981 4.88996 7.80259 5.02739 7.94002C5.09608 8.00871 5.18617 8.04306 5.27621 8.04306C5.36625 8.04306 5.45634 8.00871 5.52503 7.94002L6.1092 7.35586C6.24663 7.21838 6.24663 6.9956 6.1092 6.85817C5.97177 6.72078 5.74894 6.72078 5.61156 6.85817Z" fill="black"/>
<path d="M4.81406 5.04921H5.86073C6.05507 5.04921 6.21263 4.8917 6.21263 4.6973C6.21263 4.50291 6.05507 4.3454 5.86073 4.3454H4.81406C4.61972 4.3454 4.46216 4.50291 4.46216 4.6973C4.46216 4.8917 4.61972 5.04921 4.81406 5.04921Z" fill="black"/>
<path d="M22.6581 10.2303L21.0816 8.42404C20.9983 8.32856 20.8777 8.2738 20.7509 8.2738C20.6242 8.2738 20.5036 8.32856 20.4202 8.42409L18.8437 10.2302C18.7308 10.3596 18.7037 10.5442 18.7748 10.7005C18.8458 10.8568 19.0026 10.9578 19.1744 10.9578H19.6848V12.409C19.6848 12.6034 19.8423 12.7609 20.0367 12.7609C20.2311 12.7609 20.3886 12.6034 20.3886 12.409V10.693C20.3886 10.4509 20.1917 10.2541 19.9497 10.2541H19.7572L20.7509 9.11547L21.7447 10.2541H21.5522C21.3101 10.2541 21.1133 10.4509 21.1133 10.693V12.409C21.1133 12.6034 21.2708 12.7609 21.4652 12.7609C21.6596 12.7609 21.8171 12.6034 21.8171 12.409V10.9578H22.3274C22.4992 10.9578 22.656 10.8568 22.727 10.7005C22.7981 10.5442 22.771 10.3596 22.6581 10.2303Z" fill="black"/>
<path d="M1.65304 14.3007V12.5847C1.65304 12.3426 1.45611 12.1457 1.21409 12.1457H1.02158L2.01532 11.0072L3.00905 12.1457H2.81658C2.57457 12.1457 2.37764 12.3426 2.37764 12.5847V14.3007C2.37764 14.4951 2.5352 14.6527 2.72955 14.6527C2.92389 14.6527 3.08145 14.4951 3.08145 14.3007V12.8495H3.59181C3.7635 12.8495 3.92035 12.7485 3.99144 12.5922C4.06248 12.4359 4.03545 12.2513 3.92251 12.1219L2.34597 10.3157C2.26259 10.2202 2.1421 10.1655 2.01532 10.1655C1.88854 10.1655 1.76804 10.2202 1.68462 10.3158L0.108075 12.1219C-0.00481641 12.2513 -0.0318429 12.4359 0.0391954 12.5922C0.110281 12.7485 0.26709 12.8495 0.438821 12.8495H0.949179V14.3007C0.949179 14.4951 1.10674 14.6527 1.30109 14.6527C1.49543 14.6527 1.65304 14.4951 1.65304 14.3007Z" fill="black"/>
</svg>
