<?xml version="1.0" encoding="utf-8"?>
<svg height="224px"
     preserveAspectRatio="xMidYMid"
     style="margin: auto; background: rgba(241, 242, 243, 0); display: block; shape-rendering: auto;"
     viewBox="0 0 100 100" width="224px" xmlns="http://www.w3.org/2000/svg">
  <g transform="rotate(0 50 50)">
    <rect fill="#790e8b" height="1" rx="8.5" ry="0.5" width="17" x="41.5" y="38.5">
      <animate attributeName="opacity" begin="-0.7377049180327869s" dur="0.819672131147541s" keyTimes="0;1"
               repeatCount="indefinite"
               values="1;0"></animate>
    </rect>
  </g>
  <g transform="rotate(36 50 50)">
    <rect fill="#790e8b" height="1" rx="8.5" ry="0.5" width="17" x="41.5" y="38.5">
      <animate attributeName="opacity" begin="-0.6557377049180328s" dur="0.819672131147541s" keyTimes="0;1"
               repeatCount="indefinite"
               values="1;0"></animate>
    </rect>
  </g>
  <g transform="rotate(72 50 50)">
    <rect fill="#790e8b" height="1" rx="8.5" ry="0.5" width="17" x="41.5" y="38.5">
      <animate attributeName="opacity" begin="-0.5737704918032788s" dur="0.819672131147541s" keyTimes="0;1"
               repeatCount="indefinite"
               values="1;0"></animate>
    </rect>
  </g>
  <g transform="rotate(108 50 50)">
    <rect fill="#790e8b" height="1" rx="8.5" ry="0.5" width="17" x="41.5" y="38.5">
      <animate attributeName="opacity" begin="-0.49180327868852464s" dur="0.819672131147541s" keyTimes="0;1"
               repeatCount="indefinite" values="1;0"></animate>
    </rect>
  </g>
  <g transform="rotate(144 50 50)">
    <rect fill="#790e8b" height="1" rx="8.5" ry="0.5" width="17" x="41.5" y="38.5">
      <animate attributeName="opacity" begin="-0.4098360655737705s" dur="0.819672131147541s" keyTimes="0;1"
               repeatCount="indefinite"
               values="1;0"></animate>
    </rect>
  </g>
  <g transform="rotate(180 50 50)">
    <rect fill="#790e8b" height="1" rx="8.5" ry="0.5" width="17" x="41.5" y="38.5">
      <animate attributeName="opacity" begin="-0.3278688524590164s" dur="0.819672131147541s" keyTimes="0;1"
               repeatCount="indefinite"
               values="1;0"></animate>
    </rect>
  </g>
  <g transform="rotate(216 50 50)">
    <rect fill="#790e8b" height="1" rx="8.5" ry="0.5" width="17" x="41.5" y="38.5">
      <animate attributeName="opacity" begin="-0.24590163934426232s" dur="0.819672131147541s" keyTimes="0;1"
               repeatCount="indefinite" values="1;0"></animate>
    </rect>
  </g>
  <g transform="rotate(252 50 50)">
    <rect fill="#790e8b" height="1" rx="8.5" ry="0.5" width="17" x="41.5" y="38.5">
      <animate attributeName="opacity" begin="-0.1639344262295082s" dur="0.819672131147541s" keyTimes="0;1"
               repeatCount="indefinite"
               values="1;0"></animate>
    </rect>
  </g>
  <g transform="rotate(288 50 50)">
    <rect fill="#790e8b" height="1" rx="8.5" ry="0.5" width="17" x="41.5" y="38.5">
      <animate attributeName="opacity" begin="-0.0819672131147541s" dur="0.819672131147541s" keyTimes="0;1"
               repeatCount="indefinite"
               values="1;0"></animate>
    </rect>
  </g>
  <g transform="rotate(324 50 50)">
    <rect fill="#790e8b" height="1" rx="8.5" ry="0.5" width="17" x="41.5" y="38.5">
      <animate attributeName="opacity" begin="0s" dur="0.819672131147541s" keyTimes="0;1" repeatCount="indefinite"
               values="1;0"></animate>
    </rect>
  </g>
  <!-- [ldio] generated by https://loading.io/ --></svg>
